# xmcd
#
# Track frame offsets: 
#        150
#        12190
#        24232
#        38152
#        54500
#        68587
#        86107
#        102252
#        120797
#        136197
#        152535
#        171467
#        186765
#        199684
#        219047
#        242302
#        260487
#        285930
#        313710
#
# Disc length: 4545 seconds
#
# Revision: 1
# Processed by: cddbd v1.5.2PL0 Copyright (c) Steve Scherf et al.
# Submitted via: ExactAudioCopyFreeDBPlugin 1.0
#
DISCID=eb11bf13
DTITLE=山口百惠 MOMOE YAMAGUCHI - 百惠傳(THE LEGENDARY COLLECTION)山口百惠25週年紀念特
DTITLE=別版
DYEAR=1999
DGENRE=Japanese Songs
TTITLE0=としごろ (小女心事) 1973
TTITLE1=ひと夏の经驗 (有個夏天的體驗) 1974
TTITLE2=伊豆の踊子 (伊豆舞女郎) 1974 - 電影[伊豆舞孃]主題曲
TTITLE3=ありがとうあなた (多謝你) 1975 - 電影[赤的疑惑]主題曲 (梅艷芳 - 赤的疑惑 - 原曲)
TTITLE4=山鳩 (山鴿子) 1975 - 電影[絕唱]主題曲
TTITLE5=橫須賀スト一り一 (橫須賀的故事) 1976
TTITLE6=赤ぃ衝擊 (赤的衝擊) 1976
TTITLE7=夢先案內人 (愛情領航員) 1977
TTITLE8=假黃金 1977 (徐小鳳 - 真金那怕火 - 原曲)
TTITLE9=秋櫻 (秋櫻) 1977 (甄楚倩 - 深夜港灣 - 原曲)
TTITLE10=赤的鎖鏈 1977
TTITLE11=プレイバシクpart 2 (Playback Part2) 1978
TTITLE12=絕体絕命 (絕境) 1978
TTITLE13=いい日旅立ち (啟程的好日子) 1978 (陳潔靈 - 無言地等 - 原曲)
TTITLE14=曼珠沙華 (曼珠沙華) 1978 (梅艷芳 - 曼珠沙華 - 原曲)
TTITLE15=搖滾寡婦 1980 (梅艷芳 - 冰山大火 - 原曲)
TTITLE16=This is my trail --私の試練-- (This is my trial ~我的挑戰) 1980 (梅艷芳 
TTITLE16=孤身走我路 - 原曲)
TTITLE17=一惠 (一惠) 1980
TTITLE18=さよならの向ぅ側 (再見另一方) 1980 (張國榮 - 風繼續吹 - 原曲)
EXTD=
EXTT0=
EXTT1=
EXTT2=
EXTT3=
EXTT4=
EXTT5=
EXTT6=
EXTT7=
EXTT8=
EXTT9=
EXTT10=
EXTT11=
EXTT12=
EXTT13=
EXTT14=
EXTT15=
EXTT16=
EXTT17=
EXTT18=
PLAYORDER=
